<svg xmlns="http://www.w3.org/2000/svg" xmlns:xlink="http://www.w3.org/1999/xlink" viewBox="0 0 740 740" width="360" height="360"><g transform="translate(-80 -80)"><path d="M400 150c0 27.6-22.4 50-50 50s-50-22.4-50-50 22.4-50 50-50 50 22.4 50 50z" stroke="#3aa6dd" stroke-width="3" fill="#3aa6dd"/><use xlink:href="#a" transform="matrix(1,0,0,1,305,105) translate(34.62962962962963 49.45833333333333)"/><path d="M200 350c0 27.6-22.4 50-50 50s-50-22.4-50-50 22.4-50 50-50 50 22.4 50 50z" stroke="#ccc" stroke-width="3" fill="#ccc"/><use xlink:href="#b" transform="matrix(1,0,0,1,105,305) translate(4.086419753086425 47.97222222222222)"/><path d="M400 350c0 27.6-22.4 50-50 50s-50-22.4-50-50 22.4-50 50-50 50 22.4 50 50z" stroke="#ccc" stroke-width="3" fill="#ccc"/><use xlink:href="#c" transform="matrix(1,0,0,1,305,305) translate(5.543209876543216 47.97222222222222)"/><path d="M600 350c0 27.6-22.4 50-50 50s-50-22.4-50-50 22.4-50 50-50 50 22.4 50 50z" stroke="#3aa6dd" stroke-width="3" fill="#3aa6dd"/><use xlink:href="#d" transform="matrix(1,0,0,1,505,305) translate(10.97530864197531 47.97222222222222)"/><path d="M700 550c0 27.6-22.4 50-50 50s-50-22.4-50-50 22.4-50 50-50 50 22.4 50 50z" stroke="#7ab648" stroke-width="3" fill="#7ab648"/><use xlink:href="#e" transform="matrix(1,0,0,1,605,505) translate(20.851851851851855 47.97222222222222)"/><path d="M500 550c0 27.6-22.4 50-50 50s-50-22.4-50-50 22.4-50 50-50 50 22.4 50 50z" stroke="#ccc" stroke-width="3" fill="#ccc"/><use xlink:href="#f" transform="matrix(1,0,0,1,405,505) translate(29.71604938271605 47.97222222222222)"/><path d="M349.88 203.5l-.02.17-.1.7-.13.7-.17.7-.2.7-.22.7-.27.7-.3.73-.34.74-.4.74-.44.77-.5.8-.57.8-.65.85-.73.88-.83.92-.95.98-1.1 1.03-1.28 1.1-1.5 1.2-1.76 1.27-2.1 1.4-2.53 1.52-3.1 1.7-3.92 1.94-5.04 2.24-6.75 2.66-9.62 3.33-15.57 4.67-93.18 24.4-9.6 3.32-6.76 2.66-5.04 2.24-3.9 1.94-3.13 1.7-2.54 1.54-2.1 1.4-.9.66" stroke="#ccc" stroke-width="4" fill="none"/><path d="M350 201.5l2-.07-.04 2.17-4-.1.04-2.1z" fill="#ccc"/><path d="M153.45 293.02l3.67-14.54 7.85 4.94z" stroke="#ccc" stroke-width="4" fill="#ccc"/><path d="M350 203.5v72.26" stroke="#ccc" stroke-width="4" fill="none"/><path d="M350 201.5l2-.07v2.12h-4v-2.15z" fill="#ccc"/><path d="M350 292.03l-4.64-14.27h9.28z" stroke="#ccc" stroke-width="4" fill="#ccc"/><path d="M350.12 203.5l.02.17.1.7.13.7.17.7.2.7.22.7.27.7.3.73.34.74.4.74.44.77.5.8.57.8.65.85.73.88.83.92.95.98 1.1 1.03 1.28 1.1 1.5 1.2 1.76 1.27 2.1 1.4 2.53 1.52 3.1 1.7 3.92 1.94 5.04 2.24 6.75 2.66 9.62 3.33 15.57 4.67 93.18 24.4 9.6 3.32 6.76 2.66 5.04 2.24 3.9 1.94 3.13 1.7 2.54 1.54 2.1 1.4.9.66" stroke="#3aa6dd" stroke-width="4" fill="none"/><path d="M350 201.5l2-.07.04 2.08-4 .1-.04-2.2z" fill="#3aa6dd"/><path d="M546.55 293.02l-11.52-9.6 7.85-4.94z" stroke="#3aa6dd" stroke-width="4" fill="#3aa6dd"/><path d="M550.05 403.5v.36l.18 2.2.27 2.06.35 1.95.44 1.86.5 1.78.6 1.73.68 1.67.77 1.63.85 1.6.96 1.6 1.08 1.6 1.2 1.6 1.36 1.64 1.55 1.66 1.77 1.73 2.05 1.8 2.43 1.93 2.95 2.08 3.7 2.35 5 2.8 8.04 4 30.7 14.18 5.08 2.88 3.8 2.4 3 2.15 2.5 1.97 2.12 1.86 1.83 1.78 1.6 1.73 1.4 1.7 1.2 1.57" stroke="#3aa6dd" stroke-width="4" fill="none"/><path d="M550 401.5l2-.07.05 2.07-4 .1-.05-2.2z" fill="#3aa6dd"/><path d="M645.06 492.46l-8.9-12.07 8.8-2.94z" stroke="#3aa6dd" stroke-width="4" fill="#3aa6dd"/><path d="M549.95 403.5v.38l-.18 2.2-.27 2.08-.35 1.96-.44 1.86-.5 1.78-.6 1.73-.7 1.66-.76 1.64-.86 1.6-.96 1.6-1.07 1.6-1.2 1.62-1.37 1.63-1.54 1.67-1.77 1.72-2.06 1.8-2.42 1.93-2.94 2.1-3.7 2.35-5 2.82-8.1 4.02-30.45 14.1-5.12 2.87-3.8 2.42-3.04 2.16-2.5 2-2.15 1.88-1.85 1.8-1.62 1.74-1.42 1.7-1.1 1.5" stroke="#ccc" stroke-width="4" fill="none"/><path d="M550 401.5l2-.07-.05 2.17-4-.1.05-2.1z" fill="#ccc"/><path d="M454.95 492.5l.2-14.98 8.78 2.98z" stroke="#ccc" stroke-width="4" fill="#ccc"/><path d="M600 750c0 27.6-22.4 50-50 50s-50-22.4-50-50 22.4-50 50-50 50 22.4 50 50z" stroke="#ccc" stroke-width="3" fill="#ccc"/><use xlink:href="#g" transform="matrix(1,0,0,1,505,705) translate(21.839506172839506 47.97222222222222)"/><path d="M800 750c0 27.6-22.4 50-50 50s-50-22.4-50-50 22.4-50 50-50 50 22.4 50 50z" stroke="#ccc" stroke-width="3" fill="#ccc"/><use xlink:href="#h" transform="matrix(1,0,0,1,705,705) translate(31.71604938271605 47.97222222222222)"/><path d="M649.95 603.5v.38l-.18 2.2-.27 2.08-.35 1.96-.44 1.86-.5 1.78-.6 1.73-.7 1.66-.76 1.64-.86 1.6-.96 1.6-1.07 1.6-1.2 1.62-1.37 1.63-1.54 1.67-1.77 1.72-2.06 1.8-2.42 1.93-2.94 2.1-3.7 2.35-5 2.82-8.1 4.02-30.45 14.1-5.12 2.87-3.8 2.42-3.04 2.16-2.5 2-2.15 1.88-1.85 1.8-1.62 1.74-1.42 1.7-1.1 1.5" stroke="#ccc" stroke-width="4" fill="none"/><path d="M650 601.5l2-.07-.05 2.17-4-.1.05-2.1z" fill="#ccc"/><path d="M554.95 692.5l.2-14.98 8.78 2.98z" stroke="#ccc" stroke-width="4" fill="#ccc"/><path d="M650.05 603.5v.36l.18 2.2.27 2.06.35 1.95.44 1.86.5 1.78.6 1.73.68 1.67.77 1.63.85 1.6.96 1.6 1.08 1.6 1.2 1.6 1.36 1.64 1.55 1.66 1.77 1.73 2.05 1.8 2.43 1.93 2.95 2.08 3.7 2.35 5 2.8 8.04 4 30.7 14.18 5.08 2.88 3.8 2.4 3 2.15 2.5 1.97 2.12 1.86 1.83 1.78 1.6 1.73 1.4 1.7 1.2 1.57" stroke="#ccc" stroke-width="4" fill="none"/><path d="M650 601.5l2-.07.05 2.07-4 .1-.05-2.2z" fill="#ccc"/><path d="M745.06 692.46l-8.9-12.07 8.8-2.94z" stroke="#ccc" stroke-width="4" fill="#ccc"/><defs><path fill="#fff" d="M140-251c80 0 125 45 125 126S219 4 139 4C58 4 15-44 15-125s44-126 125-126zm-1 214c52 0 73-35 73-88 0-50-21-86-72-86-52 0-73 35-73 86s22 88 72 88" id="i"/><use transform="matrix(0.07407407407407406,0,0,0.07407407407407406,0,0)" xlink:href="#i" id="a"/><path fill="#999" d="M121-226c-27-7-43 5-38 36h38v33H83V0H34v-157H6v-33h28c-9-59 32-81 87-68v32" id="j"/><path fill="#999" d="M25-224v-37h50v37H25zM25 0v-190h50V0H25" id="k"/><path fill="#999" d="M135-150c-39-12-60 13-60 57V0H25l-1-190h47c2 13-1 29 3 40 6-28 27-53 61-41v41" id="l"/><path fill="#999" d="M137-138c1-29-70-34-71-4 15 46 118 7 119 86 1 83-164 76-172 9l43-7c4 19 20 25 44 25 33 8 57-30 24-41C81-84 22-81 20-136c-2-80 154-74 161-7" id="m"/><path fill="#999" d="M115-3C79 11 28 4 28-45v-112H4v-33h27l15-45h31v45h36v33H77v99c-1 23 16 31 38 25v30" id="n"/><path fill="#999" d="M175 0L67-191c6 58 2 128 3 191H24v-248h59L193-55c-6-58-2-129-3-193h46V0h-61" id="o"/><path fill="#999" d="M133-34C117-15 103 5 69 4 32 3 11-16 11-54c-1-60 55-63 116-61 1-26-3-47-28-47-18 1-26 9-28 27l-52-2c7-38 36-58 82-57s74 22 75 68l1 82c-1 14 12 18 25 15v27c-30 8-71 5-69-32zm-48 3c29 0 43-24 42-57-32 0-66-3-65 30 0 17 8 27 23 27" id="p"/><path fill="#999" d="M220-157c-53 9-28 100-34 157h-49v-107c1-27-5-49-29-50C55-147 81-57 75 0H25l-1-190h47c2 12-1 28 3 38 10-53 101-56 108 0 13-22 24-43 59-42 82 1 51 116 57 194h-49v-107c-1-25-5-48-29-50" id="q"/><path fill="#999" d="M185-48c-13 30-37 53-82 52C43 2 14-33 14-96s30-98 90-98c62 0 83 45 84 108H66c0 31 8 55 39 56 18 0 30-7 34-22zm-45-69c5-46-57-63-70-21-2 6-4 13-4 21h74" id="r"/><g id="b"><use transform="matrix(0.049382716049382706,0,0,0.049382716049382706,0,0)" xlink:href="#j"/><use transform="matrix(0.049382716049382706,0,0,0.049382716049382706,5.876543209876542,0)" xlink:href="#k"/><use transform="matrix(0.049382716049382706,0,0,0.049382716049382706,10.814814814814813,0)" xlink:href="#l"/><use transform="matrix(0.049382716049382706,0,0,0.049382716049382706,17.728395061728392,0)" xlink:href="#m"/><use transform="matrix(0.049382716049382706,0,0,0.049382716049382706,27.604938271604933,0)" xlink:href="#n"/><use transform="matrix(0.049382716049382706,0,0,0.049382716049382706,33.481481481481474,0)" xlink:href="#o"/><use transform="matrix(0.049382716049382706,0,0,0.049382716049382706,46.271604938271594,0)" xlink:href="#p"/><use transform="matrix(0.049382716049382706,0,0,0.049382716049382706,56.14814814814814,0)" xlink:href="#q"/><use transform="matrix(0.049382716049382706,0,0,0.049382716049382706,71.9506172839506,0)" xlink:href="#r"/></g><path fill="#999" d="M25 0v-261h50V0H25" id="s"/><g id="c"><use transform="matrix(0.049382716049382706,0,0,0.049382716049382706,0,0)" xlink:href="#s"/><use transform="matrix(0.049382716049382706,0,0,0.049382716049382706,4.93827160493827,0)" xlink:href="#p"/><use transform="matrix(0.049382716049382706,0,0,0.049382716049382706,14.814814814814811,0)" xlink:href="#m"/><use transform="matrix(0.049382716049382706,0,0,0.049382716049382706,24.691358024691354,0)" xlink:href="#n"/><use transform="matrix(0.049382716049382706,0,0,0.049382716049382706,30.567901234567895,0)" xlink:href="#o"/><use transform="matrix(0.049382716049382706,0,0,0.049382716049382706,43.35802469135802,0)" xlink:href="#p"/><use transform="matrix(0.049382716049382706,0,0,0.049382716049382706,53.234567901234556,0)" xlink:href="#q"/><use transform="matrix(0.049382716049382706,0,0,0.049382716049382706,69.03703703703702,0)" xlink:href="#r"/></g><path fill="#fff" d="M133-34C117-15 103 5 69 4 32 3 11-16 11-54c-1-60 55-63 116-61 1-26-3-47-28-47-18 1-26 9-28 27l-52-2c7-38 36-58 82-57s74 22 75 68l1 82c-1 14 12 18 25 15v27c-30 8-71 5-69-32zm-48 3c29 0 43-24 42-57-32 0-66-3-65 30 0 17 8 27 23 27" id="t"/><path fill="#fff" d="M88-194c31-1 46 15 58 34l-1-101h50l1 261h-48c-2-10 0-23-3-31C134-8 116 4 84 4 32 4 16-41 15-95c0-56 19-97 73-99zm17 164c33 0 40-30 41-66 1-37-9-64-41-64s-38 30-39 65c0 43 13 65 39 65" id="u"/><path fill="#fff" d="M135-150c-39-12-60 13-60 57V0H25l-1-190h47c2 13-1 29 3 40 6-28 27-53 61-41v41" id="v"/><path fill="#fff" d="M185-48c-13 30-37 53-82 52C43 2 14-33 14-96s30-98 90-98c62 0 83 45 84 108H66c0 31 8 55 39 56 18 0 30-7 34-22zm-45-69c5-46-57-63-70-21-2 6-4 13-4 21h74" id="w"/><path fill="#fff" d="M137-138c1-29-70-34-71-4 15 46 118 7 119 86 1 83-164 76-172 9l43-7c4 19 20 25 44 25 33 8 57-30 24-41C81-84 22-81 20-136c-2-80 154-74 161-7" id="x"/><g id="d"><use transform="matrix(0.049382716049382706,0,0,0.049382716049382706,0,0)" xlink:href="#t"/><use transform="matrix(0.049382716049382706,0,0,0.049382716049382706,9.87654320987654,0)" xlink:href="#u"/><use transform="matrix(0.049382716049382706,0,0,0.049382716049382706,20.691358024691354,0)" xlink:href="#u"/><use transform="matrix(0.049382716049382706,0,0,0.049382716049382706,31.506172839506167,0)" xlink:href="#v"/><use transform="matrix(0.049382716049382706,0,0,0.049382716049382706,38.419753086419746,0)" xlink:href="#w"/><use transform="matrix(0.049382716049382706,0,0,0.049382716049382706,48.29629629629629,0)" xlink:href="#x"/><use transform="matrix(0.049382716049382706,0,0,0.049382716049382706,58.17283950617284,0)" xlink:href="#x"/></g><path fill="#fff" d="M115-3C79 11 28 4 28-45v-112H4v-33h27l15-45h31v45h36v33H77v99c-1 23 16 31 38 25v30" id="y"/><g id="e"><use transform="matrix(0.049382716049382706,0,0,0.049382716049382706,0,0)" xlink:href="#x"/><use transform="matrix(0.049382716049382706,0,0,0.049382716049382706,9.87654320987654,0)" xlink:href="#y"/><use transform="matrix(0.049382716049382706,0,0,0.049382716049382706,15.75308641975308,0)" xlink:href="#v"/><use transform="matrix(0.049382716049382706,0,0,0.049382716049382706,22.66666666666666,0)" xlink:href="#w"/><use transform="matrix(0.049382716049382706,0,0,0.049382716049382706,32.5432098765432,0)" xlink:href="#w"/><use transform="matrix(0.049382716049382706,0,0,0.049382716049382706,42.419753086419746,0)" xlink:href="#y"/></g><path fill="#999" d="M190-63c-7 42-38 67-86 67-59 0-84-38-90-98-12-110 154-137 174-36l-49 2c-2-19-15-32-35-32-30 0-35 28-38 64-6 74 65 87 74 30" id="z"/><path fill="#999" d="M123 10C108 53 80 86 19 72V37c35 8 53-11 59-39L3-190h52l48 148c12-52 28-100 44-148h51" id="A"/><g id="f"><use transform="matrix(0.049382716049382706,0,0,0.049382716049382706,0,0)" xlink:href="#z"/><use transform="matrix(0.049382716049382706,0,0,0.049382716049382706,9.87654320987654,0)" xlink:href="#k"/><use transform="matrix(0.049382716049382706,0,0,0.049382716049382706,14.814814814814811,0)" xlink:href="#n"/><use transform="matrix(0.049382716049382706,0,0,0.049382716049382706,20.691358024691354,0)" xlink:href="#A"/></g><path fill="#999" d="M135-194c52 0 70 43 70 98 0 56-19 99-73 100-30 1-46-15-58-35L72 0H24l1-261h50v104c11-23 29-37 60-37zM114-30c31 0 40-27 40-66 0-37-7-63-39-63s-41 28-41 65c0 36 8 64 40 64" id="B"/><path fill="#999" d="M110-194c64 0 96 36 96 99 0 64-35 99-97 99-61 0-95-36-95-99 0-62 34-99 96-99zm-1 164c35 0 45-28 45-65 0-40-10-65-43-65-34 0-45 26-45 65 0 36 10 65 43 65" id="C"/><path fill="#999" d="M147 0L96-86 75-71V0H25v-261h50v150l67-79h53l-66 74L201 0h-54" id="D"/><g id="g"><use transform="matrix(0.049382716049382706,0,0,0.049382716049382706,0,0)" xlink:href="#B"/><use transform="matrix(0.049382716049382706,0,0,0.049382716049382706,10.814814814814813,0)" xlink:href="#s"/><use transform="matrix(0.049382716049382706,0,0,0.049382716049382706,15.753086419753084,0)" xlink:href="#C"/><use transform="matrix(0.049382716049382706,0,0,0.049382716049382706,26.567901234567895,0)" xlink:href="#z"/><use transform="matrix(0.049382716049382706,0,0,0.049382716049382706,36.44444444444444,0)" xlink:href="#D"/></g><path fill="#999" d="M135-194c53 0 70 44 70 98 0 56-19 98-73 100-31 1-45-17-59-34 3 33 2 69 2 105H25l-1-265h48c2 10 0 23 3 31 11-24 29-35 60-35zM114-30c33 0 39-31 40-66 0-38-9-64-40-64-56 0-55 130 0 130" id="E"/><g id="h"><use transform="matrix(0.049382716049382706,0,0,0.049382716049382706,0,0)" xlink:href="#p"/><use transform="matrix(0.049382716049382706,0,0,0.049382716049382706,9.87654320987654,0)" xlink:href="#E"/><use transform="matrix(0.049382716049382706,0,0,0.049382716049382706,20.691358024691354,0)" xlink:href="#n"/></g></defs></g></svg>